HIERARCHY
ROOT Hips
{
	OFFSET -0.001795 -0.223333 0.028219
	CHANNELS 6 Xposition Yposition Zposition Zrotation Yrotation Xrotation 
	JOINT LeftUpLeg
	{
		OFFSET 0.069520 -0.091406 -0.006815
		CHANNELS 3 Zrotation Yrotation Xrotation
		JOINT LeftLeg
		{
			OFFSET 0.034277 -0.375199 -0.004496
			CHANNELS 3 Zrotation Yrotation Xrotation
			JOINT LeftFoot
			{
				OFFSET -0.013596 -0.397961 -0.043693
				CHANNELS 3 Zrotation Yrotation Xrotation
				JOINT LeftToe
				{
					OFFSET 0.026358 -0.055791 0.119288
					CHANNELS 3 Zrotation Yrotation Xrotation
					End Site
					{
						OFFSET 0.000000 0.000000 0.000000
					}
				}
			}
		}
	}
	JOINT RightUpLeg
	{
		OFFSET -0.067670 -0.090522 -0.004320
		CHANNELS 3 Zrotation Yrotation Xrotation
		JOINT RightLeg
		{
			OFFSET -0.038290 -0.382569 -0.008850
			CHANNELS 3 Zrotation Yrotation Xrotation
			JOINT RightFoot
			{
				OFFSET 0.015774 -0.398415 -0.042312
				CHANNELS 3 Zrotation Yrotation Xrotation
				JOINT RightToe
				{
					OFFSET -0.025372 -0.048144 0.123348
					CHANNELS 3 Zrotation Yrotation Xrotation
					End Site
					{
						OFFSET 0.000000 0.000000 0.000000
					}
				}
			}
		}
	}
	JOINT Spine
	{
		OFFSET -0.002533 0.108963 -0.026696
		CHANNELS 3 Zrotation Yrotation Xrotation
		JOINT Spine1
		{
			OFFSET 0.005487 0.135180 0.001092
			CHANNELS 3 Zrotation Yrotation Xrotation
			JOINT Spine2
			{
				OFFSET 0.001457 0.052922 0.025425
				CHANNELS 3 Zrotation Yrotation Xrotation
				JOINT Neck
				{
					OFFSET -0.002778 0.213870 -0.042857
					CHANNELS 3 Zrotation Yrotation Xrotation
					JOINT Head
					{
						OFFSET 0.005152 0.064970 0.051349
						CHANNELS 3 Zrotation Yrotation Xrotation
						End Site
						{
							OFFSET 0.000000 0.000000 0.000000
						}
					}
				}
				JOINT LeftShoulder
				{
					OFFSET 0.078845 0.121749 -0.034090
					CHANNELS 3 Zrotation Yrotation Xrotation
					JOINT LeftArm
					{
						OFFSET 0.090977 0.030469 -0.008868
						CHANNELS 3 Zrotation Yrotation Xrotation
						JOINT LeftForeArm
						{
							OFFSET 0.259612 -0.012772 -0.027456
							CHANNELS 3 Zrotation Yrotation Xrotation
							JOINT LeftHand
							{
								OFFSET 0.249234 0.008986 -0.001171
								CHANNELS 3 Zrotation Yrotation Xrotation
								End Site
								{
									OFFSET 0.000000 0.000000 0.000000
								}
							}
						}
					}
				}
				JOINT RightShoulder
				{
					OFFSET -0.081759 0.118833 -0.038615
					CHANNELS 3 Zrotation Yrotation Xrotation
					JOINT RightArm
					{
						OFFSET -0.096012 0.032551 -0.009143
						CHANNELS 3 Zrotation Yrotation Xrotation
						JOINT RightForeArm
						{
							OFFSET -0.253742 -0.013329 -0.021401
							CHANNELS 3 Zrotation Yrotation Xrotation
							JOINT RightHand
							{
								OFFSET -0.255298 0.007772 -0.005559
								CHANNELS 3 Zrotation Yrotation Xrotation
								End Site
								{
									OFFSET 0.000000 0.000000 0.000000
								}
							}
						}
					}
				}
			}
		}
	}
}
MOTION
Frames: 10
Frame Time: 0.050000
0.017858 0.965537 -0.029798 -0.044780 1.453506 -5.028903 1.250094 1.069461 13.940412 -1.282215 0.390330 -11.837485 1.135797 8.317683 18.110433 0.000000 0.000000 0.000000 -5.375199 -0.457747 8.898499 2.968482 -0.394422 -4.675682 0.472550 -5.472384 16.784348 0.000000 0.000000 0.000000 3.824264 -0.658970 9.223633 -3.180760 1.418063 -25.554184 -0.125799 -0.378363 28.822059 -3.530769 3.790187 -30.110488 0.000000 0.000000 0.000000 11.772084 -13.814135 3.476217 9.599577 -39.170556 -5.152690 64.613314 -11.629388 -7.759394 0.000000 0.000000 0.000000 26.582189 -0.878421 -1.862533 52.652475 4.600488 -5.902968 8.093935 22.244501 2.491061 0.000000 0.000000 0.000000 
0.018226 0.965459 -0.030445 -0.083981 2.113763 -5.152985 1.488590 1.012874 13.894720 -1.579878 0.380672 -11.740982 0.813820 7.874944 17.839194 0.000000 0.000000 0.000000 -5.359016 -0.501126 9.259329 2.945011 -0.401554 -4.935273 0.292694 -5.705653 16.866373 0.000000 0.000000 0.000000 3.989788 -0.687631 9.392139 -3.543926 1.512748 -25.443740 0.145135 -0.316104 28.856359 -3.010515 3.585180 -29.897281 0.000000 0.000000 0.000000 10.379261 -13.619168 3.616232 8.298165 -38.431175 -4.783857 66.344966 -11.977853 -8.375178 0.000000 0.000000 0.000000 26.932452 -0.963573 -1.757330 52.175502 4.979180 -5.768937 7.822742 22.012872 2.426041 0.000000 0.000000 0.000000 
0.018379 0.965338 -0.030991 -0.093183 2.338862 -5.151176 1.666439 0.991701 14.026780 -1.706920 0.380431 -11.889250 0.545084 7.528960 17.874866 0.000000 0.000000 0.000000 -5.486672 -0.500818 9.326135 3.000118 -0.410737 -5.187472 0.550274 -5.299021 17.133202 0.000000 0.000000 0.000000 4.183915 -0.702375 9.379857 -3.795689 1.580497 -25.302323 0.210269 0.101002 28.968584 -2.507824 3.399372 -29.628114 0.000000 0.000000 0.000000 9.444029 -13.473734 3.716090 6.463083 -36.833071 -4.170263 67.591333 -12.312692 -8.934282 0.000000 0.000000 0.000000 27.386596 -1.156690 -1.700570 51.872297 5.532146 -5.589897 7.360707 22.441997 2.421842 0.000000 0.000000 0.000000 
0.018349 0.964942 -0.031394 -0.147163 2.769396 -5.080534 2.051050 0.924100 13.993845 -2.097910 0.374916 -11.929321 0.263519 7.115273 17.635316 0.000000 0.000000 0.000000 -5.365518 -0.528619 9.411962 2.915734 -0.409700 -5.270477 0.338130 -5.623905 17.232273 0.000000 0.000000 0.000000 4.217923 -0.704121 9.318465 -3.889503 1.612422 -25.104657 0.338943 0.200894 29.055350 -1.907230 3.124821 -29.440306 0.000000 0.000000 0.000000 8.158712 -13.201612 3.788784 5.114651 -35.083402 -3.667373 68.891832 -12.636671 -9.499723 0.000000 0.000000 0.000000 27.540564 -1.232732 -1.620408 51.672308 5.733416 -5.536158 7.015988 22.571892 2.386644 0.000000 0.000000 0.000000 
0.018134 0.964796 -0.031654 -0.159195 2.811605 -5.016754 2.254435 0.896080 13.992569 -2.190163 0.374492 -11.959675 0.142318 6.948920 17.647807 0.000000 0.000000 0.000000 -5.366567 -0.527300 9.385029 2.888761 -0.407879 -5.257586 0.448184 -5.376387 17.060636 0.000000 0.000000 0.000000 4.164620 -0.706186 9.377547 -4.062763 1.652656 -25.172708 0.550457 0.470225 29.224707 -1.511232 2.957051 -29.440023 0.000000 0.000000 0.000000 7.342862 -12.731152 3.751814 3.718431 -33.325532 -3.195972 69.643570 -12.955967 -9.943135 0.000000 0.000000 0.000000 27.878081 -1.718289 -1.842559 51.518964 5.701897 -5.593025 6.872116 23.144287 2.453696 0.000000 0.000000 0.000000 
0.017865 0.964455 -0.031865 -0.259763 2.807230 -4.957665 2.610273 0.850886 14.022017 -2.322252 0.376451 -12.286410 0.023216 6.853061 17.915899 0.000000 0.000000 0.000000 -5.130446 -0.554618 9.505917 2.751807 -0.400533 -5.377386 0.397312 -5.444898 17.001342 0.000000 0.000000 0.000000 4.310046 -0.705107 9.218556 -4.062486 1.658287 -24.866743 0.541170 0.904017 29.142725 -0.944186 2.712235 -29.240635 0.000000 0.000000 0.000000 6.511310 -11.974766 3.640639 2.553267 -31.975287 -2.868351 69.764537 -13.134381 -10.200662 0.000000 0.000000 0.000000 28.088030 -2.144776 -1.988446 51.516118 5.612477 -5.653480 6.936897 23.427975 2.521321 0.000000 0.000000 0.000000 
0.017638 0.964295 -0.031990 -0.270271 2.549671 -4.970409 2.701347 0.846737 13.986942 -2.222661 0.379996 -12.185677 0.098037 6.889527 17.779275 0.000000 0.000000 0.000000 -5.165160 -0.545986 9.538077 2.657572 -0.392097 -5.374863 0.521166 -5.219491 16.829374 0.000000 0.000000 0.000000 4.262102 -0.698278 9.200790 -4.143174 1.676664 -24.717026 0.670548 1.284942 29.231752 -0.909945 2.734979 -29.248832 0.000000 0.000000 0.000000 5.774702 -11.328472 3.521275 0.980690 -30.553613 -2.493903 70.102779 -13.344023 -10.437908 0.000000 0.000000 0.000000 28.239673 -2.401248 -2.081525 51.743384 5.590088 -5.710562 6.849934 23.703001 2.559044 0.000000 0.000000 0.000000 
0.017496 0.964179 -0.032069 -0.355620 2.241995 -5.088400 2.716383 0.862159 14.091725 -2.146202 0.387537 -12.486747 0.094920 6.945140 18.133622 0.000000 0.000000 0.000000 -5.004755 -0.567494 9.775055 2.587248 -0.387672 -5.491635 0.566429 -5.231653 16.976224 0.000000 0.000000 0.000000 4.488790 -0.714818 9.235838 -4.314461 1.715027 -24.666862 0.799802 1.764792 29.305542 -0.540677 2.576711 -29.018817 0.000000 0.000000 0.000000 4.844363 -10.809274 3.435630 -0.372914 -29.553894 -2.237708 69.483468 -13.338326 -10.357805 0.000000 0.000000 0.000000 28.442384 -2.591740 -2.111072 51.701794 5.493247 -5.783900 7.130956 23.772898 2.636344 0.000000 0.000000 0.000000 
0.017372 0.964142 -0.032008 -0.314240 1.780457 -5.158771 2.511741 0.926622 14.416366 -1.830661 0.399855 -12.821516 0.421566 7.431043 18.439331 0.000000 0.000000 0.000000 -4.965695 -0.557403 9.767283 2.478193 -0.375591 -5.377306 0.636892 -5.200985 17.027124 0.000000 0.000000 0.000000 4.677980 -0.729303 9.291271 -4.480004 1.749103 -24.519487 0.801641 2.344622 29.300233 -0.296387 2.498824 -29.051895 0.000000 0.000000 0.000000 3.886262 -10.169646 3.301044 -2.281161 -28.982293 -1.975708 69.055902 -13.067488 -10.085635 0.000000 0.000000 0.000000 28.427879 -2.665786 -2.048578 52.002697 5.548280 -5.808870 7.768318 24.092680 2.825833 0.000000 0.000000 0.000000 
0.017109 0.963994 -0.032057 -0.296874 1.278622 -5.329956 2.319381 0.992219 14.724965 -1.455019 0.415245 -13.126380 0.459053 7.522741 18.837331 0.000000 0.000000 0.000000 -4.854661 -0.562438 9.899807 2.420910 -0.363896 -5.129836 0.597999 -5.362625 17.068641 0.000000 0.000000 0.000000 5.011037 -0.757447 9.409568 -4.489929 1.743643 -24.699031 0.613671 3.075031 29.562716 0.314630 2.221468 -28.737616 0.000000 0.000000 0.000000 2.722614 -10.139519 3.336025 -3.753375 -28.575950 -1.802107 68.397043 -12.459873 -9.615414 0.000000 0.000000 0.000000 28.464960 -2.805726 -1.976431 52.248363 5.673145 -5.838278 8.062247 24.307927 2.941191 0.000000 0.000000 0.000000 
